<svg viewBox="0 0 1080 1080" xmlns="http://www.w3.org/2000/svg" xmlns:xlink="http://www.w3.org/1999/xlink"><clipPath id="a"><path d="m196.15 463s-91.92 32.08-79.44 112.13 103.29 117.94 115.34 110.19-62.4-49.06-69.72-106.74 54.87-59.85 54.87-59.85z"/></clipPath><clipPath id="b"><path d="m691.51 273.1s-14.61-42.02-22.51-55.1-13.33-34.08-31.77-26.65-37.67 64.06-39 89.17-12.56 66.36-21.52 66.62-137.86-40.74-227.53-32.8-131.44 47.16-151.43 101.74-17.16 122.73 23.83 151.17 42.28 32 37.93 38.43-15.89 12.56-5.64 25.63 38.18 12.3 74.3 6.66 88.89-11.27 110.43-10.25 41.26 0 48.44-9.22 7.81-17.94 6.4-22.55c32 2.3 87.37-1.16 115.82-11.53 32.67 33.05 56.88 46.12 82.25 50s59.18 1.54 69.18-6.92 4.22-49.37-32.29-66.19c48.43 23.15 107.11 15 137.6-4.53 35.85-22.89 47.42-58.72 39.22-88.27-5.87-21.19-12-34-13.52-71.44s-9.56-84.9-42.36-103.69-77.04-33.86-157.83-20.28z"/></clipPath><path d="m196.15 463s-91.92 32.08-79.44 112.13 103.29 117.94 115.34 110.19-62.4-49.06-69.72-106.74 54.87-59.85 54.87-59.85z" fill="#ff8d76"/><g clip-path="url(#a)"><path d="m130.88 700.06s-8.71-95.34 97.37-91.66c49.19 85.17 0 131.29 0 131.29z" fill="#ffd3b3"/></g><path d="m780.16 276.94s18.7-46.12 33.82-60.47 27.42-20.75 34.34 6.15 19.73 74.05 13.83 98.91c-52.78-20.76-81.99-44.59-81.99-44.59z" fill="#ff8d76"/><path d="m778.78 563.27s37.67 40.4 66 43.48 59.11 2.9 70-9.57 13-34.68 7.86-44.75-36.39-18.79-52.62-26.31c-50.02 3.25-91.24 37.15-91.24 37.15z" fill="#ff8d76"/><path d="m691.51 273.1s-14.61-42.02-22.51-55.1-13.33-34.08-31.77-26.65-37.67 64.06-39 89.17-12.56 66.36-21.52 66.62-137.86-40.74-227.53-32.8-131.44 47.16-151.43 101.74-17.16 122.73 23.83 151.17 42.28 32 37.93 38.43-15.89 12.56-5.64 25.63 38.18 12.3 74.3 6.66 88.89-11.27 110.43-10.25 41.26 0 48.44-9.22 7.81-17.94 6.4-22.55c32 2.3 87.37-1.16 115.82-11.53 32.67 33.05 56.88 46.12 82.25 50s59.18 1.54 69.18-6.92 4.22-49.37-32.29-66.19c48.43 23.15 107.11 15 137.6-4.53 35.85-22.89 47.42-58.72 39.22-88.27-5.87-21.19-12-34-13.52-71.44s-9.56-84.9-42.36-103.69-77.04-33.86-157.83-20.28z" fill="#fea691"/><g clip-path="url(#b)"><path d="m735.58 268.2s34.84 24.8 44.58 57.8 16.23 91.56-4.61 123.67-67.68 33-78.58 34.17c-23 2.47-33.82 29.38-18 45.77s91.85 54.39 91.85 54.39l103.28-5.59 70.56-78.92-33.82-32.45s-27.2 13.24-49.88 3.75-26.31-39.28-32.12-74.3-3.79-100.48-68-128.39c-18.77-12.34-25.26.1-25.26.1z" fill="#ffd3b3"/></g><path d="m590.53 552.23s7.68 20 15 30.06" fill="none" stroke="#ff8d76" stroke-linecap="round" stroke-miterlimit="10" stroke-width="9"/><path d="m349.19 458.35s49.45 10.25 63 50.22-15.89 71.49-43.05 82" fill="none" stroke="#ff8d76" stroke-linecap="round" stroke-miterlimit="10" stroke-width="9"/><path d="m397.2 571.72s30.13 1.65 54.22 0 36.13 10.14 42 24.23" fill="none" stroke="#ff8d76" stroke-linecap="round" stroke-miterlimit="10" stroke-width="9"/><path d="m654.61 286.17s-20.63-11-20.76-29.72 2.31-40 9-42 34.84 40.78 33 66.64c-12.6 4.46-21.24 5.08-21.24 5.08z" fill="#ffd3b3"/><path d="m691.51 273.1s-22 5.89-34.34 13.07" fill="none" stroke="#ff8d76" stroke-linecap="round" stroke-miterlimit="10" stroke-width="9"/><path d="m371.73 726.24s104.93-38 159.89-79.17a134.34 134.34 0 0 0 6.4 25.11l21.78-4.1 7.43 18.57 63.55-3.2 13.84 21 24.38 6.93s-44.71 83.27-105.44 122.48c-3.84-9.74-7.56-13.46-12-13.33s-22 2.82-26.39 1.28 3.17-20.75 3.17-20.75-38.79-2.44-58.78-10-34.2-21.91-40-25.12-35-6.91-37.41-11 7.95-9.23 4.1-16.15-24.52-12.55-24.52-12.55z" fill="#e1ecff"/><path d="m284.79 711.21 15.37 18.45 30.58-9.23-8.37-6.49 4.78-7.52z" fill="#e1ecff"/><path d="m731.32 672s13.49 4.44 23.91 15a23 23 0 0 0 -15.37 11.27s9.74-.17 15.37 3.76 2.57 28.7 6.84 48.85 7.51 34.85 7.51 39 11.62 27.33 11.62 27.33 123.16 11.28 203.61-21.86c-16.22-4.61-38.6-14.69-38.6-14.69l10.25-11.28s-28.36-14.52-31.78-18.1 14.32-79.28 14.32-79.28-31.94 2-59.44 0-88.68-21.56-148.24 0z" fill="#e1ecff"/><path d="m661.78 807.73s19.09-24.09 45.87-41c7.43 19.86 13.58 61.75 13.58 61.75s-15.89 3.46-29.72 0-1.03-18.7-29.73-20.75z" fill="#e1ecff"/><path d="m786.47 466.33c5.9-8.27 49.53-11.24 55.76-2.13s-9.88 28.87-25.52 28.87-38.14-15.65-30.24-26.74z" fill="#413f4c"/><circle cx="735.58" cy="446.57" fill="#413f4c" r="12.04"/><circle cx="870.11" cy="446.57" fill="#413f4c" r="12.04"/><path d="m770.72 404c1.44-8.72-12.57-13.85-24.14-14.6s-22.43 2.4-22.16 7.51 43.5 24.01 46.3 7.09z" fill="#ffd3b3"/><path d="m835.74 403.81c-2-8.58 9.39-13.19 19.06-13.59s19.08 3 19.3 8-34.54 22.24-38.36 5.59z" fill="#ffd3b3"/><path d="m790.25 519.34s17.38-1.88 25.85-15.38c10 13.84 24.53 10.59 24.53 10.59s3 27.33-21.78 29.38c-25.99 2.16-28.6-24.59-28.6-24.59z" fill="#ff6ea9"/><path d="m816.2 504s2 16.4 2.39 25.62" fill="none" stroke="#ea4e95" stroke-linecap="round" stroke-miterlimit="10" stroke-width="7"/><path d="m770.25 515.24s27.2 13.56 46-11.28c12.77 18.58 38.61 8.88 38.61 8.88" fill="none" stroke="#413f4c" stroke-linecap="round" stroke-linejoin="round" stroke-width="8"/><path d="m486.2 675.31 61.82 29.07-38.27 42.7-87.97-40.95z" fill="#99adf9"/><g fill="none" stroke-linecap="round" stroke-miterlimit="10"><path d="m575.18 718.04 68.15 29.04" stroke="#99adf9" stroke-width="7"/><path d="m813.24 701.09 13.45 72.86" stroke="#99adf9" stroke-width="7"/><path d="m840 701.09 13.45 72.86" stroke="#99adf9" stroke-width="7"/><path d="m866.77 701.09 13.45 72.86" stroke="#99adf9" stroke-width="7"/><path d="m560.89 734.75 68.16 29.04" stroke="#99adf9" stroke-width="7"/><path d="m548.02 752.21 68.15 29.04" stroke="#99adf9" stroke-width="7"/><path d="m702.44 608.4s13.78 4.46 10.88 22.18" stroke="#ff8d76" stroke-width="9"/><path d="m738.59 605.36s9.26 5.1 6.36 22.82" stroke="#ff8d76" stroke-width="9"/></g></svg>